<svg xmlns="http://www.w3.org/2000/svg" viewBox="0 0 900 500" role="img" aria-labelledby="title desc">
  <title id="title">16-QAM</title><desc id="desc">Generated reproducibly by scripts/lecture-04/generate_assets.py.</desc>
  <rect width="100%" height="100%" fill="var(--surface)"/>
  <style>:root{--ink:#183037;--muted:#486067;--line:#c8d8d8;--accent:#075c67;--focus:#a84b12;--surface:#ffffff;--surface-alt:#f0f5f4;--accent-soft:#e3f1ef;--group-green:#e6edd7;--group-orange:#fff0e0;--group-purple:#efe8f5;--group-red:#fff0ed}@media(prefers-color-scheme:dark){:root{--ink:#ecf4f1;--muted:#bfd0d0;--line:#49676c;--accent:#91dce0;--focus:#ffc178;--surface:#182830;--surface-alt:#20353c;--accent-soft:#21464c;--group-green:#303f24;--group-orange:#493624;--group-purple:#383047;--group-red:#432a2a}}text{font-family:system-ui,-apple-system,"Segoe UI",sans-serif;fill:var(--ink)}.muted{fill:var(--muted);font-size:15px}.axis{stroke:var(--ink);stroke-width:2}.grid{stroke:var(--line);stroke-width:1}.label{font-size:16px}.title{font-size:20px;font-weight:700}</style><text x="90" y="28" class="title">16-QAM</text><line x1="100" y1="242" x2="800" y2="242" class="axis"/><line x1="450" y1="55" x2="450" y2="430" class="axis"/><text x="790" y="234" class="muted">I</text><text x="460" y="70" class="muted">Q</text><circle cx="337.5" cy="354.5" r="5" fill="var(--accent)"/><circle cx="337.5" cy="279.5" r="5" fill="var(--accent)"/><circle cx="337.5" cy="204.5" r="5" fill="var(--accent)"/><circle cx="337.5" cy="129.5" r="5" fill="var(--accent)"/><circle cx="412.5" cy="354.5" r="5" fill="var(--accent)"/><circle cx="412.5" cy="279.5" r="5" fill="var(--accent)"/><circle cx="412.5" cy="204.5" r="5" fill="var(--accent)"/><circle cx="412.5" cy="129.5" r="5" fill="var(--accent)"/><circle cx="487.5" cy="354.5" r="5" fill="var(--accent)"/><circle cx="487.5" cy="279.5" r="5" fill="var(--accent)"/><circle cx="487.5" cy="204.5" r="5" fill="var(--accent)"/><circle cx="487.5" cy="129.5" r="5" fill="var(--accent)"/><circle cx="562.5" cy="354.5" r="5" fill="var(--accent)"/><circle cx="562.5" cy="279.5" r="5" fill="var(--accent)"/><circle cx="562.5" cy="204.5" r="5" fill="var(--accent)"/><circle cx="562.5" cy="129.5" r="5" fill="var(--accent)"/><text x="90" y="475" class="muted"> Каждая точка — различимое состояние символа.</text></svg>