%TF.GenerationSoftware,KiCad,Pcbnew,10.0.5*%
%TF.CreationDate,2026-09-30T04:58:59+07:00*%
%TF.ProjectId,rc-lowpass-lab,72632d6c-6f77-4706-9173-732d6c61622e,rev?*%
%TF.SameCoordinates,Original*%
%TF.FileFunction,Copper,L2,Bot*%
%TF.FilePolarity,Positive*%
%FSLAX46Y46*%
G04 Gerber Fmt 4.6, Leading zero omitted, Abs format (unit mm)*
G04 Created by KiCad (PCBNEW 10.0.5) date 2026-09-30 04:58:59*
%MOMM*%
%LPD*%
G01*
G04 APERTURE LIST*
%TA.AperFunction,ComponentPad*%
%ADD10R,1.700000X1.700000*%
%TD*%
%TA.AperFunction,ComponentPad*%
%ADD11C,1.600000*%
%TD*%
G04 APERTURE END LIST*
D10*
%TO.P,J1,1*%
%TO.N,FC_1K*%
X5000000Y-5500000D03*
%TD*%
%TO.P,J2,1*%
%TO.N,FC_3K*%
X5000000Y-11000000D03*
%TD*%
%TO.P,J4,1*%
%TO.N,FC_9K*%
X5000000Y-22000000D03*
%TD*%
D11*
%TO.P,R1,1*%
%TO.N,FC_1K*%
X11500000Y-5500000D03*
%TO.P,R1,2*%
%TO.N,OUT*%
X19120000Y-5500000D03*
%TD*%
%TO.P,R4,1*%
%TO.N,FC_9K*%
X11500000Y-22000000D03*
%TO.P,R4,2*%
%TO.N,OUT*%
X19120000Y-22000000D03*
%TD*%
%TO.P,C1,1*%
%TO.N,OUT*%
X24120000Y-16500000D03*
%TO.P,C1,2*%
%TO.N,GND*%
X29120000Y-16500000D03*
%TD*%
D10*
%TO.P,J7,1*%
%TO.N,GND*%
X29120000Y-22000000D03*
%TD*%
%TO.P,J6,1*%
%TO.N,OUT*%
X29120000Y-5500000D03*
%TD*%
%TO.P,J3,1*%
%TO.N,FC_5K*%
X5000000Y-16500000D03*
%TD*%
D11*
%TO.P,R5,1*%
%TO.N,FC_19K*%
X11500000Y-27500000D03*
%TO.P,R5,2*%
%TO.N,OUT*%
X19120000Y-27500000D03*
%TD*%
D10*
%TO.P,J9,1*%
%TO.N,GND*%
X24120000Y-25000000D03*
%TD*%
%TO.P,J5,1*%
%TO.N,FC_19K*%
X5000000Y-27500000D03*
%TD*%
D11*
%TO.P,R3,1*%
%TO.N,FC_5K*%
X11500000Y-16500000D03*
%TO.P,R3,2*%
%TO.N,OUT*%
X19120000Y-16500000D03*
%TD*%
%TO.P,R2,1*%
%TO.N,FC_3K*%
X11500000Y-11000000D03*
%TO.P,R2,2*%
%TO.N,OUT*%
X19120000Y-11000000D03*
%TD*%
D10*
%TO.P,J8,1*%
%TO.N,GND*%
X29120000Y-27500000D03*
%TD*%
%TA.AperFunction,Conductor*%
%TO.N,GND*%
G36*
X32442539Y-520185D02*
G01*
X32488294Y-572989D01*
X32499500Y-624500D01*
X32499500Y-32375500D01*
X32479815Y-32442539D01*
X32427011Y-32488294D01*
X32375500Y-32499500D01*
X624500Y-32499500D01*
X557461Y-32479815D01*
X511706Y-32427011D01*
X500500Y-32375500D01*
X500500Y-26602135D01*
X3649500Y-26602135D01*
X3649500Y-28397870D01*
X3649501Y-28397876D01*
X3655908Y-28457483D01*
X3706202Y-28592328D01*
X3706206Y-28592335D01*
X3792452Y-28707544D01*
X3792455Y-28707547D01*
X3907664Y-28793793D01*
X3907671Y-28793797D01*
X4042517Y-28844091D01*
X4042516Y-28844091D01*
X4049444Y-28844835D01*
X4102127Y-28850500D01*
X5897872Y-28850499D01*
X5957483Y-28844091D01*
X6092331Y-28793796D01*
X6207546Y-28707546D01*
X6293796Y-28592331D01*
X6344091Y-28457483D01*
X6350500Y-28397873D01*
X6350499Y-27397648D01*
X10199500Y-27397648D01*
X10199500Y-27602351D01*
X10231522Y-27804534D01*
X10294781Y-27999223D01*
X10387715Y-28181613D01*
X10508028Y-28347213D01*
X10652786Y-28491971D01*
X10790928Y-28592335D01*
X10818390Y-28612287D01*
X10934607Y-28671503D01*
X11000776Y-28705218D01*
X11000778Y-28705218D01*
X11000781Y-28705220D01*
X11105137Y-28739127D01*
X11195465Y-28768477D01*
X11296557Y-28784488D01*
X11397648Y-28800500D01*
X11397649Y-28800500D01*
X11602351Y-28800500D01*
X11602352Y-28800500D01*
X11804534Y-28768477D01*
X11999219Y-28705220D01*
X12181610Y-28612287D01*
X12274590Y-28544732D01*
X12347213Y-28491971D01*
X12347215Y-28491968D01*
X12347219Y-28491966D01*
X12491966Y-28347219D01*
X12491968Y-28347215D01*
X12491971Y-28347213D01*
X12544732Y-28274590D01*
X12612287Y-28181610D01*
X12705220Y-27999219D01*
X12768477Y-27804534D01*
X12800500Y-27602352D01*
X12800500Y-27397648D01*
X17819500Y-27397648D01*
X17819500Y-27602351D01*
X17851522Y-27804534D01*
X17914781Y-27999223D01*
X18007715Y-28181613D01*
X18128028Y-28347213D01*
X18272786Y-28491971D01*
X18410928Y-28592335D01*
X18438390Y-28612287D01*
X18554607Y-28671503D01*
X18620776Y-28705218D01*
X18620778Y-28705218D01*
X18620781Y-28705220D01*
X18725137Y-28739127D01*
X18815465Y-28768477D01*
X18916557Y-28784488D01*
X19017648Y-28800500D01*
X19017649Y-28800500D01*
X19222351Y-28800500D01*
X19222352Y-28800500D01*
X19424534Y-28768477D01*
X19619219Y-28705220D01*
X19801610Y-28612287D01*
X19894590Y-28544732D01*
X19967213Y-28491971D01*
X19967215Y-28491968D01*
X19967219Y-28491966D01*
X20111966Y-28347219D01*
X20111968Y-28347215D01*
X20111971Y-28347213D01*
X20164732Y-28274590D01*
X20232287Y-28181610D01*
X20325220Y-27999219D01*
X20388477Y-27804534D01*
X20408322Y-27679240D01*
X20420500Y-27602351D01*
X20420500Y-27397648D01*
X20388477Y-27195465D01*
X20325218Y-27000776D01*
X20291503Y-26934607D01*
X20232287Y-26818390D01*
X20111966Y-26652781D01*
X20061340Y-26602155D01*
X27770000Y-26602155D01*
X27770000Y-27250000D01*
X28686988Y-27250000D01*
X28654075Y-27307007D01*
X28620000Y-27434174D01*
X28620000Y-27565826D01*
X28654075Y-27692993D01*
X28686988Y-27750000D01*
X27770000Y-27750000D01*
X27770000Y-28397844D01*
X27776401Y-28457372D01*
X27776403Y-28457379D01*
X27826645Y-28592086D01*
X27826649Y-28592093D01*
X27912809Y-28707187D01*
X27912812Y-28707190D01*
X28027906Y-28793350D01*
X28027913Y-28793354D01*
X28162620Y-28843596D01*
X28162627Y-28843598D01*
X28222155Y-28849999D01*
X28222172Y-28850000D01*
X28870000Y-28850000D01*
X28870000Y-27933012D01*
X28927007Y-27965925D01*
X29054174Y-28000000D01*
X29185826Y-28000000D01*
X29312993Y-27965925D01*
X29370000Y-27933012D01*
X29370000Y-28850000D01*
X30017828Y-28850000D01*
X30017844Y-28849999D01*
X30077372Y-28843598D01*
X30077379Y-28843596D01*
X30212086Y-28793354D01*
X30212093Y-28793350D01*
X30327187Y-28707190D01*
X30327190Y-28707187D01*
X30413350Y-28592093D01*
X30413354Y-28592086D01*
X30463596Y-28457379D01*
X30463598Y-28457372D01*
X30469999Y-28397844D01*
X30470000Y-28397827D01*
X30470000Y-27750000D01*
X29553012Y-27750000D01*
X29585925Y-27692993D01*
X29620000Y-27565826D01*
X29620000Y-27434174D01*
X29585925Y-27307007D01*
X29553012Y-27250000D01*
X30470000Y-27250000D01*
X30470000Y-26602172D01*
X30469999Y-26602155D01*
X30463598Y-26542627D01*
X30463596Y-26542620D01*
X30413354Y-26407913D01*
X30413350Y-26407906D01*
X30327190Y-26292812D01*
X30327187Y-26292809D01*
X30212093Y-26206649D01*
X30212086Y-26206645D01*
X30077379Y-26156403D01*
X30077372Y-26156401D01*
X30017844Y-26150000D01*
X29370000Y-26150000D01*
X29370000Y-27066988D01*
X29312993Y-27034075D01*
X29185826Y-27000000D01*
X29054174Y-27000000D01*
X28927007Y-27034075D01*
X28870000Y-27066988D01*
X28870000Y-26150000D01*
X28222155Y-26150000D01*
X28162627Y-26156401D01*
X28162620Y-26156403D01*
X28027913Y-26206645D01*
X28027906Y-26206649D01*
X27912812Y-26292809D01*
X27912809Y-26292812D01*
X27826649Y-26407906D01*
X27826645Y-26407913D01*
X27776403Y-26542620D01*
X27776401Y-26542627D01*
X27770000Y-26602155D01*
X20061340Y-26602155D01*
X19967219Y-26508034D01*
X19967213Y-26508028D01*
X19801613Y-26387715D01*
X19801612Y-26387714D01*
X19801610Y-26387713D01*
X19715026Y-26343596D01*
X19619223Y-26294781D01*
X19424534Y-26231522D01*
X19249995Y-26203878D01*
X19222352Y-26199500D01*
X19017648Y-26199500D01*
X18993329Y-26203351D01*
X18815465Y-26231522D01*
X18620776Y-26294781D01*
X18438386Y-26387715D01*
X18272786Y-26508028D01*
X18128028Y-26652786D01*
X18007715Y-26818386D01*
X17914781Y-27000776D01*
X17851522Y-27195465D01*
X17819500Y-27397648D01*
X12800500Y-27397648D01*
X12786144Y-27307007D01*
X12768477Y-27195465D01*
X12705218Y-27000776D01*
X12671503Y-26934607D01*
X12612287Y-26818390D01*
X12604556Y-26807749D01*
X12491971Y-26652786D01*
X12347213Y-26508028D01*
X12181613Y-26387715D01*
X12181612Y-26387714D01*
X12181610Y-26387713D01*
X12095026Y-26343596D01*
X11999223Y-26294781D01*
X11804534Y-26231522D01*
X11629995Y-26203878D01*
X11602352Y-26199500D01*
X11397648Y-26199500D01*
X11373329Y-26203351D01*
X11195465Y-26231522D01*
X11000776Y-26294781D01*
X10818386Y-26387715D01*
X10652786Y-26508028D01*
X10508028Y-26652786D01*
X10387715Y-26818386D01*
X10294781Y-27000776D01*
X10231522Y-27195465D01*
X10199500Y-27397648D01*
X6350499Y-27397648D01*
X6350499Y-26602128D01*
X6344091Y-26542517D01*
X6331227Y-26508028D01*
X6293797Y-26407671D01*
X6293793Y-26407664D01*
X6207547Y-26292455D01*
X6207544Y-26292452D01*
X6092335Y-26206206D01*
X6092328Y-26206202D01*
X5957482Y-26155908D01*
X5957483Y-26155908D01*
X5897883Y-26149501D01*
X5897881Y-26149500D01*
X5897873Y-26149500D01*
X5897864Y-26149500D01*
X4102129Y-26149500D01*
X4102123Y-26149501D01*
X4042516Y-26155908D01*
X3907671Y-26206202D01*
X3907664Y-26206206D01*
X3792455Y-26292452D01*
X3792452Y-26292455D01*
X3706206Y-26407664D01*
X3706202Y-26407671D01*
X3655908Y-26542517D01*
X3649501Y-26602116D01*
X3649501Y-26602123D01*
X3649500Y-26602135D01*
X500500Y-26602135D01*
X500500Y-24102155D01*
X22770000Y-24102155D01*
X22770000Y-24750000D01*
X23686988Y-24750000D01*
X23654075Y-24807007D01*
X23620000Y-24934174D01*
X23620000Y-25065826D01*
X23654075Y-25192993D01*
X23686988Y-25250000D01*
X22770000Y-25250000D01*
X22770000Y-25897844D01*
X22776401Y-25957372D01*
X22776403Y-25957379D01*
X22826645Y-26092086D01*
X22826649Y-26092093D01*
X22912809Y-26207187D01*
X22912812Y-26207190D01*
X23027906Y-26293350D01*
X23027913Y-26293354D01*
X23162620Y-26343596D01*
X23162627Y-26343598D01*
X23222155Y-26349999D01*
X23222172Y-26350000D01*
X23870000Y-26350000D01*
X23870000Y-25433012D01*
X23927007Y-25465925D01*
X24054174Y-25500000D01*
X24185826Y-25500000D01*
X24312993Y-25465925D01*
X24370000Y-25433012D01*
X24370000Y-26350000D01*
X25017828Y-26350000D01*
X25017844Y-26349999D01*
X25077372Y-26343598D01*
X25077379Y-26343596D01*
X25212086Y-26293354D01*
X25212093Y-26293350D01*
X25327187Y-26207190D01*
X25327190Y-26207187D01*
X25413350Y-26092093D01*
X25413354Y-26092086D01*
X25463596Y-25957379D01*
X25463598Y-25957372D01*
X25469999Y-25897844D01*
X25470000Y-25897827D01*
X25470000Y-25250000D01*
X24553012Y-25250000D01*
X24585925Y-25192993D01*
X24620000Y-25065826D01*
X24620000Y-24934174D01*
X24585925Y-24807007D01*
X24553012Y-24750000D01*
X25470000Y-24750000D01*
X25470000Y-24102172D01*
X25469999Y-24102155D01*
X25463598Y-24042627D01*
X25463596Y-24042620D01*
X25413354Y-23907913D01*
X25413350Y-23907906D01*
X25327190Y-23792812D01*
X25327187Y-23792809D01*
X25212093Y-23706649D01*
X25212086Y-23706645D01*
X25077379Y-23656403D01*
X25077372Y-23656401D01*
X25017844Y-23650000D01*
X24370000Y-23650000D01*
X24370000Y-24566988D01*
X24312993Y-24534075D01*
X24185826Y-24500000D01*
X24054174Y-24500000D01*
X23927007Y-24534075D01*
X23870000Y-24566988D01*
X23870000Y-23650000D01*
X23222155Y-23650000D01*
X23162627Y-23656401D01*
X23162620Y-23656403D01*
X23027913Y-23706645D01*
X23027906Y-23706649D01*
X22912812Y-23792809D01*
X22912809Y-23792812D01*
X22826649Y-23907906D01*
X22826645Y-23907913D01*
X22776403Y-24042620D01*
X22776401Y-24042627D01*
X22770000Y-24102155D01*
X500500Y-24102155D01*
X500500Y-21102135D01*
X3649500Y-21102135D01*
X3649500Y-22897870D01*
X3649501Y-22897876D01*
X3655908Y-22957483D01*
X3706202Y-23092328D01*
X3706206Y-23092335D01*
X3792452Y-23207544D01*
X3792455Y-23207547D01*
X3907664Y-23293793D01*
X3907671Y-23293797D01*
X4042517Y-23344091D01*
X4042516Y-23344091D01*
X4049444Y-23344835D01*
X4102127Y-23350500D01*
X5897872Y-23350499D01*
X5957483Y-23344091D01*
X6092331Y-23293796D01*
X6207546Y-23207546D01*
X6293796Y-23092331D01*
X6344091Y-22957483D01*
X6350500Y-22897873D01*
X6350499Y-21897648D01*
X10199500Y-21897648D01*
X10199500Y-22102351D01*
X10231522Y-22304534D01*
X10294781Y-22499223D01*
X10387715Y-22681613D01*
X10508028Y-22847213D01*
X10652786Y-22991971D01*
X10790928Y-23092335D01*
X10818390Y-23112287D01*
X10934607Y-23171503D01*
X11000776Y-23205218D01*
X11000778Y-23205218D01*
X11000781Y-23205220D01*
X11105137Y-23239127D01*
X11195465Y-23268477D01*
X11296557Y-23284488D01*
X11397648Y-23300500D01*
X11397649Y-23300500D01*
X11602351Y-23300500D01*
X11602352Y-23300500D01*
X11804534Y-23268477D01*
X11999219Y-23205220D01*
X12181610Y-23112287D01*
X12274590Y-23044732D01*
X12347213Y-22991971D01*
X12347215Y-22991968D01*
X12347219Y-22991966D01*
X12491966Y-22847219D01*
X12491968Y-22847215D01*
X12491971Y-22847213D01*
X12544732Y-22774590D01*
X12612287Y-22681610D01*
X12705220Y-22499219D01*
X12768477Y-22304534D01*
X12800500Y-22102352D01*
X12800500Y-21897648D01*
X17819500Y-21897648D01*
X17819500Y-22102351D01*
X17851522Y-22304534D01*
X17914781Y-22499223D01*
X18007715Y-22681613D01*
X18128028Y-22847213D01*
X18272786Y-22991971D01*
X18410928Y-23092335D01*
X18438390Y-23112287D01*
X18554607Y-23171503D01*
X18620776Y-23205218D01*
X18620778Y-23205218D01*
X18620781Y-23205220D01*
X18725137Y-23239127D01*
X18815465Y-23268477D01*
X18916557Y-23284488D01*
X19017648Y-23300500D01*
X19017649Y-23300500D01*
X19222351Y-23300500D01*
X19222352Y-23300500D01*
X19424534Y-23268477D01*
X19619219Y-23205220D01*
X19801610Y-23112287D01*
X19894590Y-23044732D01*
X19967213Y-22991971D01*
X19967215Y-22991968D01*
X19967219Y-22991966D01*
X20111966Y-22847219D01*
X20111968Y-22847215D01*
X20111971Y-22847213D01*
X20164732Y-22774590D01*
X20232287Y-22681610D01*
X20325220Y-22499219D01*
X20388477Y-22304534D01*
X20408322Y-22179240D01*
X20420500Y-22102351D01*
X20420500Y-21897648D01*
X20388477Y-21695465D01*
X20325218Y-21500776D01*
X20291503Y-21434607D01*
X20232287Y-21318390D01*
X20111966Y-21152781D01*
X20061340Y-21102155D01*
X27770000Y-21102155D01*
X27770000Y-21750000D01*
X28686988Y-21750000D01*
X28654075Y-21807007D01*
X28620000Y-21934174D01*
X28620000Y-22065826D01*
X28654075Y-22192993D01*
X28686988Y-22250000D01*
X27770000Y-22250000D01*
X27770000Y-22897844D01*
X27776401Y-22957372D01*
X27776403Y-22957379D01*
X27826645Y-23092086D01*
X27826649Y-23092093D01*
X27912809Y-23207187D01*
X27912812Y-23207190D01*
X28027906Y-23293350D01*
X28027913Y-23293354D01*
X28162620Y-23343596D01*
X28162627Y-23343598D01*
X28222155Y-23349999D01*
X28222172Y-23350000D01*
X28870000Y-23350000D01*
X28870000Y-22433012D01*
X28927007Y-22465925D01*
X29054174Y-22500000D01*
X29185826Y-22500000D01*
X29312993Y-22465925D01*
X29370000Y-22433012D01*
X29370000Y-23350000D01*
X30017828Y-23350000D01*
X30017844Y-23349999D01*
X30077372Y-23343598D01*
X30077379Y-23343596D01*
X30212086Y-23293354D01*
X30212093Y-23293350D01*
X30327187Y-23207190D01*
X30327190Y-23207187D01*
X30413350Y-23092093D01*
X30413354Y-23092086D01*
X30463596Y-22957379D01*
X30463598Y-22957372D01*
X30469999Y-22897844D01*
X30470000Y-22897827D01*
X30470000Y-22250000D01*
X29553012Y-22250000D01*
X29585925Y-22192993D01*
X29620000Y-22065826D01*
X29620000Y-21934174D01*
X29585925Y-21807007D01*
X29553012Y-21750000D01*
X30470000Y-21750000D01*
X30470000Y-21102172D01*
X30469999Y-21102155D01*
X30463598Y-21042627D01*
X30463596Y-21042620D01*
X30413354Y-20907913D01*
X30413350Y-20907906D01*
X30327190Y-20792812D01*
X30327187Y-20792809D01*
X30212093Y-20706649D01*
X30212086Y-20706645D01*
X30077379Y-20656403D01*
X30077372Y-20656401D01*
X30017844Y-20650000D01*
X29370000Y-20650000D01*
X29370000Y-21566988D01*
X29312993Y-21534075D01*
X29185826Y-21500000D01*
X29054174Y-21500000D01*
X28927007Y-21534075D01*
X28870000Y-21566988D01*
X28870000Y-20650000D01*
X28222155Y-20650000D01*
X28162627Y-20656401D01*
X28162620Y-20656403D01*
X28027913Y-20706645D01*
X28027906Y-20706649D01*
X27912812Y-20792809D01*
X27912809Y-20792812D01*
X27826649Y-20907906D01*
X27826645Y-20907913D01*
X27776403Y-21042620D01*
X27776401Y-21042627D01*
X27770000Y-21102155D01*
X20061340Y-21102155D01*
X19967219Y-21008034D01*
X19967213Y-21008028D01*
X19801613Y-20887715D01*
X19801612Y-20887714D01*
X19801610Y-20887713D01*
X19744653Y-20858691D01*
X19619223Y-20794781D01*
X19424534Y-20731522D01*
X19249995Y-20703878D01*
X19222352Y-20699500D01*
X19017648Y-20699500D01*
X18993329Y-20703351D01*
X18815465Y-20731522D01*
X18620776Y-20794781D01*
X18438386Y-20887715D01*
X18272786Y-21008028D01*
X18128028Y-21152786D01*
X18007715Y-21318386D01*
X17914781Y-21500776D01*
X17851522Y-21695465D01*
X17819500Y-21897648D01*
X12800500Y-21897648D01*
X12786144Y-21807007D01*
X12768477Y-21695465D01*
X12705218Y-21500776D01*
X12671503Y-21434607D01*
X12612287Y-21318390D01*
X12604556Y-21307749D01*
X12491971Y-21152786D01*
X12347213Y-21008028D01*
X12181613Y-20887715D01*
X12181612Y-20887714D01*
X12181610Y-20887713D01*
X12124653Y-20858691D01*
X11999223Y-20794781D01*
X11804534Y-20731522D01*
X11629995Y-20703878D01*
X11602352Y-20699500D01*
X11397648Y-20699500D01*
X11373329Y-20703351D01*
X11195465Y-20731522D01*
X11000776Y-20794781D01*
X10818386Y-20887715D01*
X10652786Y-21008028D01*
X10508028Y-21152786D01*
X10387715Y-21318386D01*
X10294781Y-21500776D01*
X10231522Y-21695465D01*
X10199500Y-21897648D01*
X6350499Y-21897648D01*
X6350499Y-21102128D01*
X6344091Y-21042517D01*
X6331227Y-21008028D01*
X6293797Y-20907671D01*
X6293793Y-20907664D01*
X6207547Y-20792455D01*
X6207544Y-20792452D01*
X6092335Y-20706206D01*
X6092328Y-20706202D01*
X5957482Y-20655908D01*
X5957483Y-20655908D01*
X5897883Y-20649501D01*
X5897881Y-20649500D01*
X5897873Y-20649500D01*
X5897864Y-20649500D01*
X4102129Y-20649500D01*
X4102123Y-20649501D01*
X4042516Y-20655908D01*
X3907671Y-20706202D01*
X3907664Y-20706206D01*
X3792455Y-20792452D01*
X3792452Y-20792455D01*
X3706206Y-20907664D01*
X3706202Y-20907671D01*
X3655908Y-21042517D01*
X3649501Y-21102116D01*
X3649501Y-21102123D01*
X3649500Y-21102135D01*
X500500Y-21102135D01*
X500500Y-15602135D01*
X3649500Y-15602135D01*
X3649500Y-17397870D01*
X3649501Y-17397876D01*
X3655908Y-17457483D01*
X3706202Y-17592328D01*
X3706206Y-17592335D01*
X3792452Y-17707544D01*
X3792455Y-17707547D01*
X3907664Y-17793793D01*
X3907671Y-17793797D01*
X4042517Y-17844091D01*
X4042516Y-17844091D01*
X4049444Y-17844835D01*
X4102127Y-17850500D01*
X5897872Y-17850499D01*
X5957483Y-17844091D01*
X6092331Y-17793796D01*
X6207546Y-17707546D01*
X6293796Y-17592331D01*
X6344091Y-17457483D01*
X6350500Y-17397873D01*
X6350499Y-16397648D01*
X10199500Y-16397648D01*
X10199500Y-16602351D01*
X10231522Y-16804534D01*
X10294781Y-16999223D01*
X10358691Y-17124653D01*
X10387585Y-17181359D01*
X10387715Y-17181613D01*
X10508028Y-17347213D01*
X10652786Y-17491971D01*
X10790928Y-17592335D01*
X10818390Y-17612287D01*
X10934607Y-17671503D01*
X11000776Y-17705218D01*
X11000778Y-17705218D01*
X11000781Y-17705220D01*
X11105137Y-17739127D01*
X11195465Y-17768477D01*
X11296557Y-17784488D01*
X11397648Y-17800500D01*
X11397649Y-17800500D01*
X11602351Y-17800500D01*
X11602352Y-17800500D01*
X11804534Y-17768477D01*
X11999219Y-17705220D01*
X12181610Y-17612287D01*
X12274590Y-17544732D01*
X12347213Y-17491971D01*
X12347215Y-17491968D01*
X12347219Y-17491966D01*
X12491966Y-17347219D01*
X12491968Y-17347215D01*
X12491971Y-17347213D01*
X12544732Y-17274590D01*
X12612287Y-17181610D01*
X12705220Y-16999219D01*
X12768477Y-16804534D01*
X12800500Y-16602352D01*
X12800500Y-16397648D01*
X17819500Y-16397648D01*
X17819500Y-16602351D01*
X17851522Y-16804534D01*
X17914781Y-16999223D01*
X17978691Y-17124653D01*
X18007585Y-17181359D01*
X18007715Y-17181613D01*
X18128028Y-17347213D01*
X18272786Y-17491971D01*
X18410928Y-17592335D01*
X18438390Y-17612287D01*
X18554607Y-17671503D01*
X18620776Y-17705218D01*
X18620778Y-17705218D01*
X18620781Y-17705220D01*
X18725137Y-17739127D01*
X18815465Y-17768477D01*
X18916557Y-17784488D01*
X19017648Y-17800500D01*
X19017649Y-17800500D01*
X19222351Y-17800500D01*
X19222352Y-17800500D01*
X19424534Y-17768477D01*
X19619219Y-17705220D01*
X19801610Y-17612287D01*
X19894590Y-17544732D01*
X19967213Y-17491971D01*
X19967215Y-17491968D01*
X19967219Y-17491966D01*
X20111966Y-17347219D01*
X20111968Y-17347215D01*
X20111971Y-17347213D01*
X20164732Y-17274590D01*
X20232287Y-17181610D01*
X20325220Y-16999219D01*
X20388477Y-16804534D01*
X20420500Y-16602352D01*
X20420500Y-16397648D01*
X22819500Y-16397648D01*
X22819500Y-16602351D01*
X22851522Y-16804534D01*
X22914781Y-16999223D01*
X22978691Y-17124653D01*
X23007585Y-17181359D01*
X23007715Y-17181613D01*
X23128028Y-17347213D01*
X23272786Y-17491971D01*
X23410928Y-17592335D01*
X23438390Y-17612287D01*
X23554607Y-17671503D01*
X23620776Y-17705218D01*
X23620778Y-17705218D01*
X23620781Y-17705220D01*
X23725137Y-17739127D01*
X23815465Y-17768477D01*
X23916557Y-17784488D01*
X24017648Y-17800500D01*
X24017649Y-17800500D01*
X24222351Y-17800500D01*
X24222352Y-17800500D01*
X24424534Y-17768477D01*
X24619219Y-17705220D01*
X24801610Y-17612287D01*
X24894590Y-17544732D01*
X24967213Y-17491971D01*
X24967215Y-17491968D01*
X24967219Y-17491966D01*
X25111966Y-17347219D01*
X25111968Y-17347215D01*
X25111971Y-17347213D01*
X25164732Y-17274590D01*
X25232287Y-17181610D01*
X25325220Y-16999219D01*
X25388477Y-16804534D01*
X25420500Y-16602352D01*
X25420500Y-16397682D01*
X27820000Y-16397682D01*
X27820000Y-16602317D01*
X27852009Y-16804417D01*
X27915244Y-16999031D01*
X28008141Y-17181350D01*
X28008147Y-17181359D01*
X28040523Y-17225921D01*
X28040524Y-17225922D01*
X28720000Y-16546446D01*
X28720000Y-16552661D01*
X28747259Y-16654394D01*
X28799920Y-16745606D01*
X28874394Y-16820080D01*
X28965606Y-16872741D01*
X29067339Y-16900000D01*
X29073553Y-16900000D01*
X28394076Y-17579474D01*
X28438650Y-17611859D01*
X28620968Y-17704755D01*
X28815582Y-17767990D01*
X29017683Y-17800000D01*
X29222317Y-17800000D01*
X29424417Y-17767990D01*
X29619031Y-17704755D01*
X29801349Y-17611859D01*
X29845921Y-17579474D01*
X29166447Y-16900000D01*
X29172661Y-16900000D01*
X29274394Y-16872741D01*
X29365606Y-16820080D01*
X29440080Y-16745606D01*
X29492741Y-16654394D01*
X29520000Y-16552661D01*
X29520000Y-16546447D01*
X30199474Y-17225921D01*
X30231859Y-17181349D01*
X30324755Y-16999031D01*
X30387990Y-16804417D01*
X30420000Y-16602317D01*
X30420000Y-16397682D01*
X30387990Y-16195582D01*
X30324755Y-16000968D01*
X30231859Y-15818650D01*
X30199474Y-15774077D01*
X30199474Y-15774076D01*
X29520000Y-16453551D01*
X29520000Y-16447339D01*
X29492741Y-16345606D01*
X29440080Y-16254394D01*
X29365606Y-16179920D01*
X29274394Y-16127259D01*
X29172661Y-16100000D01*
X29166446Y-16100000D01*
X29845922Y-15420524D01*
X29845921Y-15420523D01*
X29801359Y-15388147D01*
X29801350Y-15388141D01*
X29619031Y-15295244D01*
X29424417Y-15232009D01*
X29222317Y-15200000D01*
X29017683Y-15200000D01*
X28815582Y-15232009D01*
X28620968Y-15295244D01*
X28438644Y-15388143D01*
X28394077Y-15420523D01*
X28394077Y-15420524D01*
X29073554Y-16100000D01*
X29067339Y-16100000D01*
X28965606Y-16127259D01*
X28874394Y-16179920D01*
X28799920Y-16254394D01*
X28747259Y-16345606D01*
X28720000Y-16447339D01*
X28720000Y-16453553D01*
X28040524Y-15774077D01*
X28040523Y-15774077D01*
X28008143Y-15818644D01*
X27915244Y-16000968D01*
X27852009Y-16195582D01*
X27820000Y-16397682D01*
X25420500Y-16397682D01*
X25420500Y-16397648D01*
X25412257Y-16345606D01*
X25388477Y-16195465D01*
X25357458Y-16100000D01*
X25325220Y-16000781D01*
X25325218Y-16000778D01*
X25325218Y-16000776D01*
X25232419Y-15818650D01*
X25232287Y-15818390D01*
X25200092Y-15774077D01*
X25111971Y-15652786D01*
X24967213Y-15508028D01*
X24801613Y-15387715D01*
X24801612Y-15387714D01*
X24801610Y-15387713D01*
X24744653Y-15358691D01*
X24619223Y-15294781D01*
X24424534Y-15231522D01*
X24249995Y-15203878D01*
X24222352Y-15199500D01*
X24017648Y-15199500D01*
X23993329Y-15203351D01*
X23815465Y-15231522D01*
X23620776Y-15294781D01*
X23438386Y-15387715D01*
X23272786Y-15508028D01*
X23128028Y-15652786D01*
X23007715Y-15818386D01*
X22914781Y-16000776D01*
X22851522Y-16195465D01*
X22819500Y-16397648D01*
X20420500Y-16397648D01*
X20412257Y-16345606D01*
X20388477Y-16195465D01*
X20357458Y-16100000D01*
X20325220Y-16000781D01*
X20325218Y-16000778D01*
X20325218Y-16000776D01*
X20232419Y-15818650D01*
X20232287Y-15818390D01*
X20200092Y-15774077D01*
X20111971Y-15652786D01*
X19967213Y-15508028D01*
X19801613Y-15387715D01*
X19801612Y-15387714D01*
X19801610Y-15387713D01*
X19744653Y-15358691D01*
X19619223Y-15294781D01*
X19424534Y-15231522D01*
X19249995Y-15203878D01*
X19222352Y-15199500D01*
X19017648Y-15199500D01*
X18993329Y-15203351D01*
X18815465Y-15231522D01*
X18620776Y-15294781D01*
X18438386Y-15387715D01*
X18272786Y-15508028D01*
X18128028Y-15652786D01*
X18007715Y-15818386D01*
X17914781Y-16000776D01*
X17851522Y-16195465D01*
X17819500Y-16397648D01*
X12800500Y-16397648D01*
X12792257Y-16345606D01*
X12768477Y-16195465D01*
X12737458Y-16100000D01*
X12705220Y-16000781D01*
X12705218Y-16000778D01*
X12705218Y-16000776D01*
X12612419Y-15818650D01*
X12612287Y-15818390D01*
X12580092Y-15774077D01*
X12491971Y-15652786D01*
X12347213Y-15508028D01*
X12181613Y-15387715D01*
X12181612Y-15387714D01*
X12181610Y-15387713D01*
X12124653Y-15358691D01*
X11999223Y-15294781D01*
X11804534Y-15231522D01*
X11629995Y-15203878D01*
X11602352Y-15199500D01*
X11397648Y-15199500D01*
X11373329Y-15203351D01*
X11195465Y-15231522D01*
X11000776Y-15294781D01*
X10818386Y-15387715D01*
X10652786Y-15508028D01*
X10508028Y-15652786D01*
X10387715Y-15818386D01*
X10294781Y-16000776D01*
X10231522Y-16195465D01*
X10199500Y-16397648D01*
X6350499Y-16397648D01*
X6350499Y-15602128D01*
X6344091Y-15542517D01*
X6331227Y-15508028D01*
X6293797Y-15407671D01*
X6293793Y-15407664D01*
X6207547Y-15292455D01*
X6207544Y-15292452D01*
X6092335Y-15206206D01*
X6092328Y-15206202D01*
X5957482Y-15155908D01*
X5957483Y-15155908D01*
X5897883Y-15149501D01*
X5897881Y-15149500D01*
X5897873Y-15149500D01*
X5897864Y-15149500D01*
X4102129Y-15149500D01*
X4102123Y-15149501D01*
X4042516Y-15155908D01*
X3907671Y-15206202D01*
X3907664Y-15206206D01*
X3792455Y-15292452D01*
X3792452Y-15292455D01*
X3706206Y-15407664D01*
X3706202Y-15407671D01*
X3655908Y-15542517D01*
X3649501Y-15602116D01*
X3649501Y-15602123D01*
X3649500Y-15602135D01*
X500500Y-15602135D01*
X500500Y-10102135D01*
X3649500Y-10102135D01*
X3649500Y-11897870D01*
X3649501Y-11897876D01*
X3655908Y-11957483D01*
X3706202Y-12092328D01*
X3706206Y-12092335D01*
X3792452Y-12207544D01*
X3792455Y-12207547D01*
X3907664Y-12293793D01*
X3907671Y-12293797D01*
X4042517Y-12344091D01*
X4042516Y-12344091D01*
X4049444Y-12344835D01*
X4102127Y-12350500D01*
X5897872Y-12350499D01*
X5957483Y-12344091D01*
X6092331Y-12293796D01*
X6207546Y-12207546D01*
X6293796Y-12092331D01*
X6344091Y-11957483D01*
X6350500Y-11897873D01*
X6350499Y-10897648D01*
X10199500Y-10897648D01*
X10199500Y-11102351D01*
X10231522Y-11304534D01*
X10294781Y-11499223D01*
X10387715Y-11681613D01*
X10508028Y-11847213D01*
X10652786Y-11991971D01*
X10790928Y-12092335D01*
X10818390Y-12112287D01*
X10934607Y-12171503D01*
X11000776Y-12205218D01*
X11000778Y-12205218D01*
X11000781Y-12205220D01*
X11105137Y-12239127D01*
X11195465Y-12268477D01*
X11296557Y-12284488D01*
X11397648Y-12300500D01*
X11397649Y-12300500D01*
X11602351Y-12300500D01*
X11602352Y-12300500D01*
X11804534Y-12268477D01*
X11999219Y-12205220D01*
X12181610Y-12112287D01*
X12274590Y-12044732D01*
X12347213Y-11991971D01*
X12347215Y-11991968D01*
X12347219Y-11991966D01*
X12491966Y-11847219D01*
X12491968Y-11847215D01*
X12491971Y-11847213D01*
X12544732Y-11774590D01*
X12612287Y-11681610D01*
X12705220Y-11499219D01*
X12768477Y-11304534D01*
X12800500Y-11102352D01*
X12800500Y-10897648D01*
X17819500Y-10897648D01*
X17819500Y-11102351D01*
X17851522Y-11304534D01*
X17914781Y-11499223D01*
X18007715Y-11681613D01*
X18128028Y-11847213D01*
X18272786Y-11991971D01*
X18410928Y-12092335D01*
X18438390Y-12112287D01*
X18554607Y-12171503D01*
X18620776Y-12205218D01*
X18620778Y-12205218D01*
X18620781Y-12205220D01*
X18725137Y-12239127D01*
X18815465Y-12268477D01*
X18916557Y-12284488D01*
X19017648Y-12300500D01*
X19017649Y-12300500D01*
X19222351Y-12300500D01*
X19222352Y-12300500D01*
X19424534Y-12268477D01*
X19619219Y-12205220D01*
X19801610Y-12112287D01*
X19894590Y-12044732D01*
X19967213Y-11991971D01*
X19967215Y-11991968D01*
X19967219Y-11991966D01*
X20111966Y-11847219D01*
X20111968Y-11847215D01*
X20111971Y-11847213D01*
X20164732Y-11774590D01*
X20232287Y-11681610D01*
X20325220Y-11499219D01*
X20388477Y-11304534D01*
X20420500Y-11102352D01*
X20420500Y-10897648D01*
X20388477Y-10695466D01*
X20325220Y-10500781D01*
X20325218Y-10500778D01*
X20325218Y-10500776D01*
X20291503Y-10434607D01*
X20232287Y-10318390D01*
X20224556Y-10307749D01*
X20111971Y-10152786D01*
X19967213Y-10008028D01*
X19801613Y-9887715D01*
X19801612Y-9887714D01*
X19801610Y-9887713D01*
X19744653Y-9858691D01*
X19619223Y-9794781D01*
X19424534Y-9731522D01*
X19249995Y-9703878D01*
X19222352Y-9699500D01*
X19017648Y-9699500D01*
X18993329Y-9703351D01*
X18815465Y-9731522D01*
X18620776Y-9794781D01*
X18438386Y-9887715D01*
X18272786Y-10008028D01*
X18128028Y-10152786D01*
X18007715Y-10318386D01*
X17914781Y-10500776D01*
X17851522Y-10695465D01*
X17819500Y-10897648D01*
X12800500Y-10897648D01*
X12768477Y-10695466D01*
X12705220Y-10500781D01*
X12705218Y-10500778D01*
X12705218Y-10500776D01*
X12671503Y-10434607D01*
X12612287Y-10318390D01*
X12604556Y-10307749D01*
X12491971Y-10152786D01*
X12347213Y-10008028D01*
X12181613Y-9887715D01*
X12181612Y-9887714D01*
X12181610Y-9887713D01*
X12124653Y-9858691D01*
X11999223Y-9794781D01*
X11804534Y-9731522D01*
X11629995Y-9703878D01*
X11602352Y-9699500D01*
X11397648Y-9699500D01*
X11373329Y-9703351D01*
X11195465Y-9731522D01*
X11000776Y-9794781D01*
X10818386Y-9887715D01*
X10652786Y-10008028D01*
X10508028Y-10152786D01*
X10387715Y-10318386D01*
X10294781Y-10500776D01*
X10231522Y-10695465D01*
X10199500Y-10897648D01*
X6350499Y-10897648D01*
X6350499Y-10102128D01*
X6344091Y-10042517D01*
X6331227Y-10008028D01*
X6293797Y-9907671D01*
X6293793Y-9907664D01*
X6207547Y-9792455D01*
X6207544Y-9792452D01*
X6092335Y-9706206D01*
X6092328Y-9706202D01*
X5957482Y-9655908D01*
X5957483Y-9655908D01*
X5897883Y-9649501D01*
X5897881Y-9649500D01*
X5897873Y-9649500D01*
X5897864Y-9649500D01*
X4102129Y-9649500D01*
X4102123Y-9649501D01*
X4042516Y-9655908D01*
X3907671Y-9706202D01*
X3907664Y-9706206D01*
X3792455Y-9792452D01*
X3792452Y-9792455D01*
X3706206Y-9907664D01*
X3706202Y-9907671D01*
X3655908Y-10042517D01*
X3649501Y-10102116D01*
X3649501Y-10102123D01*
X3649500Y-10102135D01*
X500500Y-10102135D01*
X500500Y-4602135D01*
X3649500Y-4602135D01*
X3649500Y-6397870D01*
X3649501Y-6397876D01*
X3655908Y-6457483D01*
X3706202Y-6592328D01*
X3706206Y-6592335D01*
X3792452Y-6707544D01*
X3792455Y-6707547D01*
X3907664Y-6793793D01*
X3907671Y-6793797D01*
X4042517Y-6844091D01*
X4042516Y-6844091D01*
X4049444Y-6844835D01*
X4102127Y-6850500D01*
X5897872Y-6850499D01*
X5957483Y-6844091D01*
X6092331Y-6793796D01*
X6207546Y-6707546D01*
X6293796Y-6592331D01*
X6344091Y-6457483D01*
X6350500Y-6397873D01*
X6350499Y-5397648D01*
X10199500Y-5397648D01*
X10199500Y-5602351D01*
X10231522Y-5804534D01*
X10294781Y-5999223D01*
X10387715Y-6181613D01*
X10508028Y-6347213D01*
X10652786Y-6491971D01*
X10790928Y-6592335D01*
X10818390Y-6612287D01*
X10934607Y-6671503D01*
X11000776Y-6705218D01*
X11000778Y-6705218D01*
X11000781Y-6705220D01*
X11105137Y-6739127D01*
X11195465Y-6768477D01*
X11296557Y-6784488D01*
X11397648Y-6800500D01*
X11397649Y-6800500D01*
X11602351Y-6800500D01*
X11602352Y-6800500D01*
X11804534Y-6768477D01*
X11999219Y-6705220D01*
X12181610Y-6612287D01*
X12274590Y-6544732D01*
X12347213Y-6491971D01*
X12347215Y-6491968D01*
X12347219Y-6491966D01*
X12491966Y-6347219D01*
X12491968Y-6347215D01*
X12491971Y-6347213D01*
X12544732Y-6274590D01*
X12612287Y-6181610D01*
X12705220Y-5999219D01*
X12768477Y-5804534D01*
X12800500Y-5602352D01*
X12800500Y-5397648D01*
X17819500Y-5397648D01*
X17819500Y-5602351D01*
X17851522Y-5804534D01*
X17914781Y-5999223D01*
X18007715Y-6181613D01*
X18128028Y-6347213D01*
X18272786Y-6491971D01*
X18410928Y-6592335D01*
X18438390Y-6612287D01*
X18554607Y-6671503D01*
X18620776Y-6705218D01*
X18620778Y-6705218D01*
X18620781Y-6705220D01*
X18725137Y-6739127D01*
X18815465Y-6768477D01*
X18916557Y-6784488D01*
X19017648Y-6800500D01*
X19017649Y-6800500D01*
X19222351Y-6800500D01*
X19222352Y-6800500D01*
X19424534Y-6768477D01*
X19619219Y-6705220D01*
X19801610Y-6612287D01*
X19894590Y-6544732D01*
X19967213Y-6491971D01*
X19967215Y-6491968D01*
X19967219Y-6491966D01*
X20111966Y-6347219D01*
X20111968Y-6347215D01*
X20111971Y-6347213D01*
X20164732Y-6274590D01*
X20232287Y-6181610D01*
X20325220Y-5999219D01*
X20388477Y-5804534D01*
X20420500Y-5602352D01*
X20420500Y-5397648D01*
X20388477Y-5195466D01*
X20325220Y-5000781D01*
X20325218Y-5000778D01*
X20325218Y-5000776D01*
X20232287Y-4818390D01*
X20125705Y-4671691D01*
X20125704Y-4671690D01*
X20111967Y-4652782D01*
X20061320Y-4602135D01*
X27769500Y-4602135D01*
X27769500Y-6397870D01*
X27769501Y-6397876D01*
X27775908Y-6457483D01*
X27826202Y-6592328D01*
X27826206Y-6592335D01*
X27912452Y-6707544D01*
X27912455Y-6707547D01*
X28027664Y-6793793D01*
X28027671Y-6793797D01*
X28162517Y-6844091D01*
X28162516Y-6844091D01*
X28169444Y-6844835D01*
X28222127Y-6850500D01*
X30017872Y-6850499D01*
X30077483Y-6844091D01*
X30212331Y-6793796D01*
X30327546Y-6707546D01*
X30413796Y-6592331D01*
X30464091Y-6457483D01*
X30470500Y-6397873D01*
X30470499Y-4602128D01*
X30464091Y-4542517D01*
X30451227Y-4508028D01*
X30413797Y-4407671D01*
X30413793Y-4407664D01*
X30327547Y-4292455D01*
X30327544Y-4292452D01*
X30212335Y-4206206D01*
X30212328Y-4206202D01*
X30077482Y-4155908D01*
X30077483Y-4155908D01*
X30017883Y-4149501D01*
X30017881Y-4149500D01*
X30017873Y-4149500D01*
X30017864Y-4149500D01*
X28222129Y-4149500D01*
X28222123Y-4149501D01*
X28162516Y-4155908D01*
X28027671Y-4206202D01*
X28027664Y-4206206D01*
X27912455Y-4292452D01*
X27912452Y-4292455D01*
X27826206Y-4407664D01*
X27826202Y-4407671D01*
X27775908Y-4542517D01*
X27769501Y-4602116D01*
X27769501Y-4602123D01*
X27769500Y-4602135D01*
X20061320Y-4602135D01*
X19967213Y-4508028D01*
X19801613Y-4387715D01*
X19801612Y-4387714D01*
X19801610Y-4387713D01*
X19744653Y-4358691D01*
X19619223Y-4294781D01*
X19424534Y-4231522D01*
X19249995Y-4203878D01*
X19222352Y-4199500D01*
X19017648Y-4199500D01*
X18993329Y-4203351D01*
X18815465Y-4231522D01*
X18620776Y-4294781D01*
X18438386Y-4387715D01*
X18272786Y-4508028D01*
X18128028Y-4652786D01*
X18007715Y-4818386D01*
X17914781Y-5000776D01*
X17851522Y-5195465D01*
X17819500Y-5397648D01*
X12800500Y-5397648D01*
X12768477Y-5195466D01*
X12705220Y-5000781D01*
X12705218Y-5000778D01*
X12705218Y-5000776D01*
X12671503Y-4934607D01*
X12612287Y-4818390D01*
X12604556Y-4807749D01*
X12491971Y-4652786D01*
X12347213Y-4508028D01*
X12181613Y-4387715D01*
X12181612Y-4387714D01*
X12181610Y-4387713D01*
X12124653Y-4358691D01*
X11999223Y-4294781D01*
X11804534Y-4231522D01*
X11629995Y-4203878D01*
X11602352Y-4199500D01*
X11397648Y-4199500D01*
X11373329Y-4203351D01*
X11195465Y-4231522D01*
X11000776Y-4294781D01*
X10818386Y-4387715D01*
X10652786Y-4508028D01*
X10508028Y-4652786D01*
X10387715Y-4818386D01*
X10294781Y-5000776D01*
X10231522Y-5195465D01*
X10199500Y-5397648D01*
X6350499Y-5397648D01*
X6350499Y-4602128D01*
X6344091Y-4542517D01*
X6331227Y-4508028D01*
X6293797Y-4407671D01*
X6293793Y-4407664D01*
X6207547Y-4292455D01*
X6207544Y-4292452D01*
X6092335Y-4206206D01*
X6092328Y-4206202D01*
X5957482Y-4155908D01*
X5957483Y-4155908D01*
X5897883Y-4149501D01*
X5897881Y-4149500D01*
X5897873Y-4149500D01*
X5897864Y-4149500D01*
X4102129Y-4149500D01*
X4102123Y-4149501D01*
X4042516Y-4155908D01*
X3907671Y-4206202D01*
X3907664Y-4206206D01*
X3792455Y-4292452D01*
X3792452Y-4292455D01*
X3706206Y-4407664D01*
X3706202Y-4407671D01*
X3655908Y-4542517D01*
X3649501Y-4602116D01*
X3649501Y-4602123D01*
X3649500Y-4602135D01*
X500500Y-4602135D01*
X500500Y-624500D01*
X520185Y-557461D01*
X572989Y-511706D01*
X624500Y-500500D01*
X32375500Y-500500D01*
X32442539Y-520185D01*
G37*
%TD.AperFunction*%
%TD*%
M02*
